<svg width="38" height="39" viewBox="0 0 38 39" fill="none" xmlns="http://www.w3.org/2000/svg">
<rect width="38" height="38" fill="#D9D9D9"/>
<path d="M19.6136 15.4091C19.5152 15.0076 19.3598 14.6553 19.1477 14.3523C18.9356 14.0417 18.6705 13.7803 18.3523 13.5682C18.0417 13.3485 17.678 13.1856 17.2614 13.0795C16.8523 12.9659 16.4015 12.9091 15.9091 12.9091C14.8485 12.9091 13.9432 13.1629 13.1932 13.6705C12.4508 14.178 11.8826 14.9091 11.4886 15.8636C11.1023 16.8182 10.9091 17.9697 10.9091 19.3182C10.9091 20.6818 11.0947 21.8485 11.4659 22.8182C11.8371 23.7879 12.3902 24.5303 13.125 25.0455C13.8598 25.5606 14.7727 25.8182 15.8636 25.8182C16.8258 25.8182 17.625 25.678 18.2614 25.3977C18.9053 25.1174 19.3864 24.7197 19.7045 24.2045C20.0227 23.6894 20.1818 23.0833 20.1818 22.3864L21.2727 22.5H15.9545V18H26.2727V21.2273C26.2727 23.3485 25.822 25.1629 24.9205 26.6705C24.0265 28.1705 22.7917 29.322 21.2159 30.125C19.6477 30.9205 17.8485 31.3182 15.8182 31.3182C13.553 31.3182 11.5644 30.8371 9.85227 29.875C8.14015 28.9129 6.80303 27.5417 5.84091 25.7614C4.88636 23.9811 4.40909 21.8636 4.40909 19.4091C4.40909 17.4848 4.70076 15.7803 5.28409 14.2955C5.875 12.8106 6.69318 11.5568 7.73864 10.5341C8.78409 9.50379 9.99242 8.72727 11.3636 8.20454C12.7348 7.67424 14.2045 7.40909 15.7727 7.40909C17.1515 7.40909 18.4318 7.60606 19.6136 8C20.803 8.38636 21.8523 8.93939 22.7614 9.65909C23.678 10.3712 24.4167 11.2159 24.9773 12.1932C25.5379 13.1705 25.8788 14.2424 26 15.4091H19.6136ZM32.9688 23.3636V25.3523H27.9375V23.3636H32.9688ZM28.9119 21.5341H31.6562V28.544C31.6562 28.6501 31.6745 28.7396 31.7109 28.8125C31.7474 28.8821 31.8037 28.9351 31.88 28.9716C31.9562 29.0047 32.054 29.0213 32.1733 29.0213C32.2562 29.0213 32.3523 29.0114 32.4616 28.9915C32.5743 28.9716 32.6572 28.955 32.7102 28.9418L33.108 30.8707C32.9853 30.9072 32.8097 30.9519 32.581 31.005C32.3556 31.058 32.0871 31.0928 31.7756 31.1094C31.1458 31.1425 30.6172 31.0779 30.1896 30.9155C29.7621 30.7498 29.4406 30.4896 29.2251 30.1349C29.0097 29.7803 28.9053 29.3362 28.9119 28.8026V21.5341Z" fill="black"/>
</svg>
