<svg width="155" height="81" viewBox="0 0 155 81" fill="none" xmlns="http://www.w3.org/2000/svg">
<path d="M33.0143 31.0181C32.8186 30.2202 32.51 29.5202 32.0884 28.918C31.6669 28.3007 31.14 27.7814 30.5077 27.3598C29.8905 26.9233 29.1679 26.5996 28.3399 26.3888C27.527 26.163 26.6312 26.0501 25.6527 26.0501C23.5451 26.0501 21.7461 26.5544 20.2557 27.5631C18.7804 28.5717 17.6513 30.0245 16.8684 31.9213C16.1007 33.8182 15.7168 36.1064 15.7168 38.7861C15.7168 41.4959 16.0856 43.8143 16.8233 45.7413C17.5609 47.6682 18.6599 49.1436 20.1202 50.1672C21.5805 51.1909 23.3945 51.7028 25.5624 51.7028C27.4743 51.7028 29.0625 51.4243 30.3271 50.8673C31.6067 50.3103 32.5626 49.5199 33.1949 48.4962C33.8272 47.4725 34.1434 46.2682 34.1434 44.8832L36.3112 45.109H25.743V36.1667H46.2471V42.5798C46.2471 46.7951 45.3514 50.4006 43.5599 53.3964C41.7835 56.3772 39.3296 58.6655 36.1983 60.2612C33.082 61.8419 29.5066 62.6323 25.472 62.6323C20.9708 62.6323 17.019 61.6763 13.6167 59.7644C10.2144 57.8525 7.5573 55.1277 5.6454 51.5899C3.74854 48.0521 2.80012 43.8444 2.80012 38.9668C2.80012 35.143 3.37971 31.7557 4.5389 28.8051C5.71314 25.8544 7.33902 23.3629 9.41652 21.3306C11.494 19.2832 13.8952 17.7401 16.62 16.7013C19.3449 15.6475 22.2654 15.1206 25.3817 15.1206C28.1216 15.1206 30.6658 15.512 33.0143 16.2949C35.3778 17.0626 37.4629 18.1616 39.2694 19.5918C41.091 21.0069 42.5588 22.6855 43.6728 24.6275C44.7868 26.5695 45.4643 28.6997 45.7051 31.0181H33.0143ZM48.031 15.7529H62.0316L71.0643 34.5408H71.4256L80.4582 15.7529H94.4588L77.4774 47.4575V62H65.0124V47.4575L48.031 15.7529ZM98.5517 15.7529H114.178L124.927 41.9476H125.469L136.218 15.7529H151.844V62H139.56V35.2634H139.199L128.901 61.6387H121.495L111.197 35.0827H110.836V62H98.5517V15.7529Z" fill="black"/>
<path d="M92.5694 67.2214V69.6678H86.3802V67.2214H92.5694ZM87.5789 64.9708H90.9549V73.5942C90.9549 73.7246 90.9773 73.8347 91.0221 73.9244C91.067 74.01 91.1363 74.0753 91.2301 74.1201C91.3239 74.1609 91.4441 74.1813 91.5909 74.1813C91.6928 74.1813 91.8111 74.169 91.9456 74.1446C92.0843 74.1201 92.1862 74.0997 92.2514 74.0834L92.7407 76.4564C92.5898 76.5012 92.3737 76.5563 92.0924 76.6215C91.8152 76.6867 91.4849 76.7295 91.1016 76.7499C90.327 76.7907 89.6767 76.7112 89.1507 76.5114C88.6247 76.3076 88.2292 75.9875 87.9642 75.5512C87.6992 75.115 87.5708 74.5686 87.5789 73.9122V64.9708ZM93.947 76.6154V67.2214H97.2251V69.0073H97.323C97.4942 68.3468 97.7654 67.8636 98.1364 67.5578C98.5115 67.252 98.9498 67.0991 99.4513 67.0991C99.5981 67.0991 99.7428 67.1114 99.8855 67.1358C100.032 67.1562 100.173 67.1868 100.308 67.2276V70.1081C100.14 70.051 99.9345 70.0082 99.6898 69.9797C99.4452 69.9512 99.2352 69.9369 99.0599 69.9369C98.7296 69.9369 98.432 70.0123 98.167 70.1632C97.906 70.3099 97.7001 70.5179 97.5493 70.787C97.3984 71.052 97.323 71.3639 97.323 71.7227V76.6154H93.947ZM103.595 76.7622C102.995 76.7622 102.465 76.6643 102.005 76.4686C101.548 76.2688 101.189 75.9671 100.928 75.5635C100.667 75.1598 100.537 74.6461 100.537 74.0223C100.537 73.5085 100.625 73.0702 100.8 72.7074C100.975 72.3404 101.22 72.0407 101.534 71.8083C101.848 71.5759 102.213 71.3986 102.628 71.2763C103.048 71.1539 103.501 71.0744 103.986 71.0377C104.512 70.997 104.934 70.948 105.252 70.891C105.574 70.8298 105.807 70.7462 105.949 70.6402C106.092 70.5301 106.163 70.3854 106.163 70.206V70.1815C106.163 69.9369 106.07 69.7493 105.882 69.6189C105.695 69.4884 105.454 69.4232 105.16 69.4232C104.838 69.4232 104.575 69.4945 104.372 69.6372C104.172 69.7758 104.051 69.9899 104.011 70.2794H100.904C100.945 69.7086 101.126 69.1826 101.448 68.7015C101.774 68.2163 102.249 67.829 102.873 67.5395C103.497 67.2459 104.276 67.0991 105.209 67.0991C105.882 67.0991 106.486 67.1786 107.02 67.3376C107.554 67.4926 108.008 67.7107 108.383 67.992C108.759 68.2693 109.044 68.5955 109.24 68.9706C109.439 69.3416 109.539 69.7453 109.539 70.1815V76.6154H106.384V75.2944H106.31C106.123 75.645 105.894 75.9284 105.625 76.1445C105.36 76.3606 105.056 76.5175 104.714 76.6154C104.376 76.7132 104.003 76.7622 103.595 76.7622ZM104.696 74.6339C104.953 74.6339 105.193 74.5808 105.417 74.4748C105.646 74.3688 105.831 74.2159 105.974 74.0162C106.117 73.8164 106.188 73.5738 106.188 73.2884V72.5055C106.098 72.5422 106.002 72.5769 105.9 72.6095C105.803 72.6421 105.697 72.6727 105.582 72.7012C105.472 72.7298 105.354 72.7563 105.228 72.7808C105.105 72.8052 104.977 72.8276 104.842 72.848C104.581 72.8888 104.367 72.9561 104.2 73.0498C104.037 73.1395 103.915 73.2517 103.833 73.3862C103.756 73.5167 103.717 73.6635 103.717 73.8266C103.717 74.0875 103.809 74.2873 103.992 74.4259C104.176 74.5645 104.41 74.6339 104.696 74.6339ZM111.152 76.6154V67.2214H114.528V76.6154H111.152ZM112.84 66.2429C112.384 66.2429 111.992 66.0921 111.666 65.7903C111.34 65.4886 111.177 65.1258 111.177 64.7017C111.177 64.2777 111.34 63.9148 111.666 63.6131C111.992 63.3114 112.384 63.1605 112.84 63.1605C113.301 63.1605 113.693 63.3114 114.015 63.6131C114.341 63.9148 114.504 64.2777 114.504 64.7017C114.504 65.1258 114.341 65.4886 114.015 65.7903C113.693 66.0921 113.301 66.2429 112.84 66.2429ZM119.624 71.3313V76.6154H116.248V67.2214H119.453V69.0073H119.551C119.755 68.412 120.114 67.9452 120.627 67.6067C121.145 67.2683 121.749 67.0991 122.438 67.0991C123.102 67.0991 123.679 67.252 124.168 67.5578C124.662 67.8595 125.043 68.2754 125.312 68.8055C125.585 69.3355 125.72 69.941 125.716 70.6219V76.6154H122.34V71.3313C122.344 70.8665 122.226 70.5016 121.985 70.2366C121.749 69.9715 121.418 69.839 120.994 69.839C120.717 69.839 120.475 69.9002 120.267 70.0225C120.063 70.1407 119.906 70.312 119.796 70.5362C119.686 70.7564 119.628 71.0214 119.624 71.3313ZM127.382 76.6154V67.2214H130.758V76.6154H127.382ZM129.07 66.2429C128.614 66.2429 128.222 66.0921 127.896 65.7903C127.57 65.4886 127.407 65.1258 127.407 64.7017C127.407 64.2777 127.57 63.9148 127.896 63.6131C128.222 63.3114 128.614 63.1605 129.07 63.1605C129.531 63.1605 129.922 63.3114 130.245 63.6131C130.571 63.9148 130.734 64.2777 130.734 64.7017C130.734 65.1258 130.571 65.4886 130.245 65.7903C129.922 66.0921 129.531 66.2429 129.07 66.2429ZM135.854 71.3313V76.6154H132.478V67.2214H135.683V69.0073H135.781C135.985 68.412 136.344 67.9452 136.857 67.6067C137.375 67.2683 137.979 67.0991 138.668 67.0991C139.332 67.0991 139.909 67.252 140.398 67.5578C140.892 67.8595 141.273 68.2754 141.542 68.8055C141.815 69.3355 141.95 69.941 141.946 70.6219V76.6154H138.57V71.3313C138.574 70.8665 138.456 70.5016 138.215 70.2366C137.979 69.9715 137.648 69.839 137.224 69.839C136.947 69.839 136.704 69.9002 136.497 70.0225C136.293 70.1407 136.136 70.312 136.026 70.5362C135.916 70.7564 135.858 71.0214 135.854 71.3313ZM148.138 80.3338C147.196 80.3338 146.389 80.1993 145.716 79.9302C145.047 79.6652 144.528 79.2982 144.157 78.8293C143.79 78.3645 143.584 77.8304 143.539 77.227H146.793C146.825 77.4268 146.907 77.5878 147.037 77.7101C147.168 77.8324 147.335 77.9201 147.539 77.9731C147.747 78.0302 147.979 78.0587 148.236 78.0587C148.672 78.0587 149.033 77.9527 149.318 77.7407C149.608 77.5287 149.753 77.1454 149.753 76.5909V75.0008H149.655C149.532 75.3188 149.345 75.59 149.092 75.8142C148.839 76.0344 148.536 76.2036 148.181 76.3218C147.826 76.436 147.437 76.4931 147.013 76.4931C146.344 76.4931 145.728 76.3381 145.166 76.0283C144.607 75.7184 144.159 75.2271 143.82 74.5543C143.486 73.8816 143.319 73.003 143.319 71.9184C143.319 70.7849 143.494 69.8635 143.845 69.1541C144.199 68.4446 144.656 67.9248 145.215 67.5945C145.777 67.2643 146.369 67.0991 146.988 67.0991C147.453 67.0991 147.861 67.1807 148.211 67.3438C148.562 67.5028 148.856 67.7168 149.092 67.9859C149.329 68.2509 149.508 68.5425 149.63 68.8605H149.704V67.2214H153.08V76.5909C153.08 77.386 152.874 78.0608 152.462 78.6153C152.054 79.1738 151.479 79.5999 150.737 79.8935C149.995 80.187 149.129 80.3338 148.138 80.3338ZM148.26 74.0957C148.57 74.0957 148.835 74.01 149.055 73.8388C149.28 73.6635 149.451 73.4148 149.569 73.0927C149.691 72.7665 149.753 72.3751 149.753 71.9184C149.753 71.4536 149.691 71.0561 149.569 70.7258C149.451 70.3915 149.28 70.1367 149.055 69.9613C148.835 69.7819 148.57 69.6922 148.26 69.6922C147.95 69.6922 147.685 69.7819 147.465 69.9613C147.249 70.1367 147.082 70.3915 146.964 70.7258C146.85 71.0561 146.793 71.4536 146.793 71.9184C146.793 72.3832 146.85 72.7787 146.964 73.1049C147.082 73.427 147.249 73.6737 147.465 73.8449C147.685 74.0121 147.95 74.0957 148.26 74.0957Z" fill="black"/>
</svg>
